REM DIRINDEX 1\2,1\3,1\4
REM DIRNAME cjc112,folder01,folder02,folder03
TITLE ""
FILE "Track55.mp3" MP3
  TRACK 01 AUDIO
    TITLE "2:cjc112_241"
    INDEX 01 00:00:00
  TRACK 02 AUDIO
    TITLE "0:"
    INDEX 01 00:01:17
  TRACK 03 AUDIO
    TITLE "3:cjc112_242"
    INDEX 01 00:01:58
  TRACK 04 AUDIO
    TITLE "0:"
    INDEX 01 00:04:56
  TRACK 05 AUDIO
    TITLE "4:cjc112_243"
    INDEX 01 00:08:23
  TRACK 06 AUDIO
    TITLE "0:"
    INDEX 01 00:11:29
